{
	"patcher" : 	{
		"fileversion" : 1,
		"appversion" : 		{
			"major" : 8,
			"minor" : 2,
			"revision" : 0,
			"architecture" : "x64",
			"modernui" : 1
		}
,
		"classnamespace" : "dsp.gen",
		"rect" : [ 34.0, 77.0, 1468.0, 713.0 ],
		"bglocked" : 0,
		"openinpresentation" : 0,
		"default_fontsize" : 12.0,
		"default_fontface" : 0,
		"default_fontname" : "Arial",
		"gridonopen" : 1,
		"gridsize" : [ 15.0, 15.0 ],
		"gridsnaponopen" : 1,
		"objectsnaponopen" : 1,
		"statusbarvisible" : 2,
		"toolbarvisible" : 1,
		"lefttoolbarpinned" : 0,
		"toptoolbarpinned" : 0,
		"righttoolbarpinned" : 0,
		"bottomtoolbarpinned" : 0,
		"toolbars_unpinned_last_save" : 0,
		"tallnewobj" : 0,
		"boxanimatetime" : 200,
		"enablehscroll" : 1,
		"enablevscroll" : 1,
		"devicewidth" : 0.0,
		"description" : "",
		"digest" : "",
		"tags" : "",
		"style" : "",
		"subpatcher_template" : "",
		"assistshowspatchername" : 0,
		"boxes" : [ 			{
				"box" : 				{
					"color" : [ 0.949019607843137, 0.019607843137255, 0.392156862745098, 1.0 ],
					"id" : "obj-7",
					"maxclass" : "newobj",
					"numinlets" : 1,
					"numoutlets" : 0,
					"patching_rect" : [ 1108.0, 675.0, 159.0, 22.0 ],
					"text" : "out 2 @comment right_chan"
				}

			}
, 			{
				"box" : 				{
					"color" : [ 0.384313725490196, 0.682352941176471, 0.698039215686274, 1.0 ],
					"id" : "obj-2",
					"maxclass" : "newobj",
					"numinlets" : 0,
					"numoutlets" : 1,
					"outlettype" : [ "" ],
					"patching_rect" : [ 1108.0, 13.0, 119.0, 22.0 ],
					"text" : "in 3 @comment gain"
				}

			}
, 			{
				"box" : 				{
					"color" : [ 0.384313725490196, 0.682352941176471, 0.698039215686274, 1.0 ],
					"id" : "obj-6",
					"maxclass" : "newobj",
					"numinlets" : 0,
					"numoutlets" : 1,
					"outlettype" : [ "" ],
					"patching_rect" : [ 660.0, 13.0, 117.0, 22.0 ],
					"text" : "in 2 @comment T60"
				}

			}
, 			{
				"box" : 				{
					"code" : "require \"GKV_Filter_Library\"; \r\n\r\n//////fbcomb_lp_T60 (Xn, ms, T60, freqcut, gain)\r\nc1 = fbcomb_lp_T60 (in1, 131., in2, 4000., in3);\r\n\r\nc2 = fbcomb_lp_T60 (in1, 171., in2, 4000., in3);\r\n\r\nc3 = fbcomb_lp_T60 (in1, 191., in2, 4000., in3);\r\n\r\nc4 = fbcomb_lp_T60 (in1, 231., in2, 4000., in3);\r\n\r\nc5 = fbcomb_lp_T60 (in1, 291., in2, 4000., in3);\r\n\r\nc6 = fbcomb_lp_T60 (in1, 311., in2, 4000., in3);\r\n\r\nc7 = fbcomb_lp_T60 (in1, 371., in2, 4000., in3);\r\n\r\nc8 = fbcomb_lp_T60 (in1, 411., in2, 4000., in3);\r\n\r\nc9 = fbcomb_lp_T60 (in1, 431., in2, 4000., in3);\r\n\r\nc10 = fbcomb_lp_T60 (in1, 147., in2, 4000., in3);\r\n\r\nc11 = fbcomb_lp_T60 (in1, 153., in2, 4000., in3);\r\n\r\nc12 = fbcomb_lp_T60 (in1, 159., in2, 4000., in3);\r\n\r\nc13 = fbcomb_lp_T60 (in1, 161., in2, 4000., in3);\r\n\r\nc14 = fbcomb_lp_T60 (in1, 167., in2, 4000., in3);\r\n\r\nc15 = fbcomb_lp_T60 (in1, 171., in2, 4000., in3);\r\n\r\nc16 = fbcomb_lp_T60 (in1, 173., in2, 4000., in3);\r\n\r\nc17 = fbcomb_lp_T60 (in1, 179., in2, 4000., in3);\r\n\r\nc18 = fbcomb_lp_T60 (in1, 183., in2, 4000., in3);\r\n\r\nc19 = fbcomb_lp_T60 (in1, 189., in2, 4000., in3);\r\n\r\nc20 = fbcomb_lp_T60 (in1, 197., in2, 4000., in3);\r\n\r\n\r\n\r\ncoutL1 = (c1*0.3)+(c2*0.75)+(c3*0.55)+(c4*0.4)+(c5*0.4)+(c6*0.5)+(c7*0.45)+(c8*0.52)+(c9*0.59)+(c10*0.82);\r\ncoutR1 = (c1*0.7)+(c2*0.25)+(c3*0.45)+(c4*0.6)+(c5*0.6)+(c6*0.5)+(c7*0.55)+(c8*0.48)+(c9*0.41)+(c10*0.18);\r\n\r\n\r\ncoutL2 = ((c11*0.3)+(c12*0.75)+(c13*0.55)+(c14*0.4)+(c15*0.4)+(c16*0.5)+(c17*0.45)+(c18*0.52)+(c19*0.59)+(c20*0.82)/20.);\r\ncoutR2 = ((c11*0.7)+(c12*0.25)+(c13*0.45)+(c14*0.6)+(c15*0.6)+(c16*0.5)+(c17*0.55)+(c18*0.48)+(c19*0.41)+(c20*0.18)/20.);\r\n\r\n\r\nout1 = coutL1+coutL2;\r\n\r\nout2 = coutR1+coutR2;",
					"fontface" : 0,
					"fontname" : "<Monospaced>",
					"fontsize" : 10.0,
					"id" : "obj-5",
					"maxclass" : "codebox",
					"numinlets" : 3,
					"numoutlets" : 2,
					"outlettype" : [ "", "" ],
					"patching_rect" : [ 212.0, 50.0, 915.0, 608.0 ]
				}

			}
, 			{
				"box" : 				{
					"color" : [ 0.384313725490196, 0.682352941176471, 0.698039215686274, 1.0 ],
					"id" : "obj-1",
					"maxclass" : "newobj",
					"numinlets" : 0,
					"numoutlets" : 1,
					"outlettype" : [ "" ],
					"patching_rect" : [ 212.0, 13.0, 111.0, 22.0 ],
					"text" : "in 1 @comment Xn"
				}

			}
, 			{
				"box" : 				{
					"color" : [ 0.949019607843137, 0.019607843137255, 0.392156862745098, 1.0 ],
					"id" : "obj-4",
					"maxclass" : "newobj",
					"numinlets" : 1,
					"numoutlets" : 0,
					"patching_rect" : [ 212.0, 675.0, 152.0, 22.0 ],
					"text" : "out 1 @comment left_chan"
				}

			}
 ],
		"lines" : [ 			{
				"patchline" : 				{
					"destination" : [ "obj-5", 0 ],
					"source" : [ "obj-1", 0 ]
				}

			}
, 			{
				"patchline" : 				{
					"destination" : [ "obj-5", 2 ],
					"source" : [ "obj-2", 0 ]
				}

			}
, 			{
				"patchline" : 				{
					"destination" : [ "obj-4", 0 ],
					"source" : [ "obj-5", 0 ]
				}

			}
, 			{
				"patchline" : 				{
					"destination" : [ "obj-7", 0 ],
					"source" : [ "obj-5", 1 ]
				}

			}
, 			{
				"patchline" : 				{
					"destination" : [ "obj-5", 1 ],
					"source" : [ "obj-6", 0 ]
				}

			}
 ],
		"autosave" : 0,
		"styles" : [ 			{
				"name" : "AudioStatus_Menu",
				"default" : 				{
					"bgfillcolor" : 					{
						"type" : "color",
						"color" : [ 0.294118, 0.313726, 0.337255, 1 ],
						"color1" : [ 0.454902, 0.462745, 0.482353, 0.0 ],
						"color2" : [ 0.290196, 0.309804, 0.301961, 1.0 ],
						"angle" : 270.0,
						"proportion" : 0.39,
						"autogradient" : 0
					}

				}
,
				"parentstyle" : "",
				"multi" : 0
			}
, 			{
				"name" : "ksliderWhite",
				"default" : 				{
					"color" : [ 1.0, 1.0, 1.0, 1.0 ]
				}
,
				"parentstyle" : "",
				"multi" : 0
			}
, 			{
				"name" : "newobjBlue-1",
				"default" : 				{
					"accentcolor" : [ 0.317647, 0.654902, 0.976471, 1.0 ]
				}
,
				"parentstyle" : "",
				"multi" : 0
			}
, 			{
				"name" : "newobjBrown-1",
				"default" : 				{
					"accentcolor" : [ 0.654902, 0.572549, 0.376471, 1.0 ]
				}
,
				"parentstyle" : "",
				"multi" : 0
			}
, 			{
				"name" : "newobjCyan-1",
				"default" : 				{
					"accentcolor" : [ 0.029546, 0.773327, 0.821113, 1.0 ]
				}
,
				"parentstyle" : "",
				"multi" : 0
			}
, 			{
				"name" : "newobjGreen-1",
				"default" : 				{
					"accentcolor" : [ 0.0, 0.533333, 0.168627, 1.0 ]
				}
,
				"parentstyle" : "",
				"multi" : 0
			}
, 			{
				"name" : "newobjYellow-1",
				"default" : 				{
					"accentcolor" : [ 0.82517, 0.78181, 0.059545, 1.0 ],
					"fontsize" : [ 12.059008 ]
				}
,
				"parentstyle" : "",
				"multi" : 0
			}
, 			{
				"name" : "numberGold-1",
				"default" : 				{
					"accentcolor" : [ 0.764706, 0.592157, 0.101961, 1.0 ]
				}
,
				"parentstyle" : "",
				"multi" : 0
			}
, 			{
				"name" : "rsliderGold",
				"default" : 				{
					"color" : [ 0.646639, 0.821777, 0.854593, 1.0 ],
					"bgcolor" : [ 0.764706, 0.592157, 0.101961, 1.0 ]
				}
,
				"parentstyle" : "",
				"multi" : 0
			}
 ]
	}

}
