{
	"patcher" : 	{
		"fileversion" : 1,
		"appversion" : 		{
			"major" : 8,
			"minor" : 2,
			"revision" : 0,
			"architecture" : "x64",
			"modernui" : 1
		}
,
		"classnamespace" : "dsp.gen",
		"rect" : [ 311.0, 84.0, 884.0, 635.0 ],
		"bglocked" : 0,
		"openinpresentation" : 0,
		"default_fontsize" : 12.0,
		"default_fontface" : 0,
		"default_fontname" : "Arial",
		"gridonopen" : 1,
		"gridsize" : [ 15.0, 15.0 ],
		"gridsnaponopen" : 1,
		"objectsnaponopen" : 1,
		"statusbarvisible" : 2,
		"toolbarvisible" : 1,
		"lefttoolbarpinned" : 0,
		"toptoolbarpinned" : 0,
		"righttoolbarpinned" : 0,
		"bottomtoolbarpinned" : 0,
		"toolbars_unpinned_last_save" : 0,
		"tallnewobj" : 0,
		"boxanimatetime" : 200,
		"enablehscroll" : 1,
		"enablevscroll" : 1,
		"devicewidth" : 0.0,
		"description" : "",
		"digest" : "",
		"tags" : "",
		"style" : "",
		"subpatcher_template" : "",
		"assistshowspatchername" : 0,
		"boxes" : [ 			{
				"box" : 				{
					"id" : "obj-13",
					"maxclass" : "newobj",
					"numinlets" : 1,
					"numoutlets" : 1,
					"outlettype" : [ "" ],
					"patching_rect" : [ 660.0, 565.0, 25.0, 22.0 ],
					"text" : "/ 8."
				}

			}
, 			{
				"box" : 				{
					"color" : [ 0.949019607843137, 0.019607843137255, 0.392156862745098, 1.0 ],
					"id" : "obj-14",
					"maxclass" : "newobj",
					"numinlets" : 1,
					"numoutlets" : 0,
					"patching_rect" : [ 660.0, 603.0, 129.0, 22.0 ],
					"text" : "out 2 @comment Rght"
				}

			}
, 			{
				"box" : 				{
					"color" : [ 0.384313725490196, 0.682352941176471, 0.698039215686274, 1.0 ],
					"id" : "obj-12",
					"maxclass" : "newobj",
					"numinlets" : 0,
					"numoutlets" : 1,
					"outlettype" : [ "" ],
					"patching_rect" : [ 660.0, 30.0, 77.0, 22.0 ],
					"text" : "in 4 fb_samp"
				}

			}
, 			{
				"box" : 				{
					"color" : [ 0.384313725490196, 0.682352941176471, 0.698039215686274, 1.0 ],
					"id" : "obj-9",
					"maxclass" : "newobj",
					"numinlets" : 0,
					"numoutlets" : 1,
					"outlettype" : [ "" ],
					"patching_rect" : [ 457.333333333333314, 30.0, 74.0, 22.0 ],
					"text" : "in 3 ap_gain"
				}

			}
, 			{
				"box" : 				{
					"color" : [ 0.384313725490196, 0.682352941176471, 0.698039215686274, 1.0 ],
					"id" : "obj-8",
					"maxclass" : "newobj",
					"numinlets" : 0,
					"numoutlets" : 1,
					"outlettype" : [ "" ],
					"patching_rect" : [ 254.666666666666629, 30.0, 81.0, 22.0 ],
					"text" : "in 2 ap_samp"
				}

			}
, 			{
				"box" : 				{
					"id" : "obj-3",
					"maxclass" : "newobj",
					"numinlets" : 1,
					"numoutlets" : 1,
					"outlettype" : [ "" ],
					"patching_rect" : [ 52.0, 565.0, 25.0, 22.0 ],
					"text" : "/ 8."
				}

			}
, 			{
				"box" : 				{
					"code" : "require \"GKV_filter_library\";\r\n\r\n\r\n//delay_line (Xn, samp)\r\nlbcf1 = delay_line (in1, in4 + (-0.8785));\r\nlbcf2 = delay_line (in1, in4 + (-0.157898));\r\nlbcf3 = delay_line (in1, in4 + (-0.2655));\r\nlbcf4 = delay_line (in1, in4 + (-0.33473));\r\nlbcf5 = delay_line (in1, in4 + 0.703743);\r\nlbcf6 = delay_line (in1, in4 + 0.2656);\r\nlbcf7 = delay_line (in1, in4 + 0.5262);\r\nlbcf8 = delay_line (in1, in4 + 0.422757);\r\n\r\nlbcfp1 = onepole (lbcf1, 8000.);\r\nlbcfp2 = onepole (lbcf2, 8000.);\r\nlbcfp3 = onepole (lbcf3, 8000.);\r\nlbcfp4 = onepole (lbcf4, 8000.);\r\nlbcfp5 = onepole (lbcf5, 8000.);\r\nlbcfp6 = onepole (lbcf6, 8000.);\r\nlbcfp7 = onepole (lbcf7, 8000.);\r\nlbcfp8 = onepole (lbcf8, 8000.);\r\n\r\n//allpass_g (Xn, ms, gain)\r\nap1 = allpass_samp (lbcfp1, in2 + 1023, in3);\r\nap2 = allpass_samp (lbcfp2, in2 + 941, in3);\r\nap3 = allpass_samp (lbcfp3, in2 + 827, in3);\r\nap4 = allpass_samp (lbcfp4, in2 + 529, in3);\r\nap5 = allpass_samp (lbcfp5, in2 + 413, in3);\r\nap6 = allpass_samp (lbcfp6, in2 + 721, in3);\r\nap7 = allpass_samp (lbcfp7, in2 + 1071, in3);\r\nap8 = allpass_samp (lbcfp8, in2 + 1239, in3);\r\n\r\n\r\n//panning\r\nlbcf1L = sqrt(0.3) * (ap1+lbcf1);\r\nlbcf1R = sqrt(1. - 0.3) * (ap1+lbcf1);\r\nlbcf2L = sqrt(0.9) * (ap2+lbcf2);\r\nlbcf2R = sqrt(1. - 0.9) * (ap2+lbcf2);\r\nlbcf3L = sqrt(0.5) * (ap3+lbcf3);\r\nlbcf3R = sqrt(1. - 0.5) * (ap3+lbcf3);\r\nlbcf4L = sqrt(0.1) * (ap4+lbcf4);\r\nlbcf4R = sqrt(1. - 0.1) * (ap4+lbcf4);\r\nlbcf5L = sqrt(0.45) * (ap5+lbcf5);\r\nlbcf5R = sqrt(1. - 0.45) * (ap5+lbcf5);\r\nlbcf6L = sqrt(0.15) * (ap6+lbcf6);\r\nlbcf6R = sqrt(1. - 0.15) * (ap6+lbcf6);\r\nlbcf7L = sqrt(0.49) * (ap7+lbcf7);\r\nlbcf7R = sqrt(1. - 0.49) * (ap7+lbcf7);\r\nlbcf8L = sqrt(0.82) * (ap8+lbcf8);\r\nlbcf8R = sqrt(1. - 0.82) * (ap8+lbcf8);\r\n\r\noutL = lbcf1L + lbcf2L + lbcf3L + lbcf4L + lbcf5L + lbcf6L + lbcf7L + lbcf8L;\r\noutR = lbcf1R + lbcf2R + lbcf3R + lbcf4R + lbcf5R + lbcf6R + lbcf7R + lbcf8R;\r\n\r\n\r\n//out\r\nout1 = outL;\r\nout2 = outR;",
					"fontface" : 0,
					"fontname" : "<Monospaced>",
					"fontsize" : 12.0,
					"id" : "obj-5",
					"maxclass" : "codebox",
					"numinlets" : 4,
					"numoutlets" : 2,
					"outlettype" : [ "", "" ],
					"patching_rect" : [ 52.0, 71.0, 627.0, 479.0 ]
				}

			}
, 			{
				"box" : 				{
					"color" : [ 0.384313725490196, 0.682352941176471, 0.698039215686274, 1.0 ],
					"id" : "obj-1",
					"maxclass" : "newobj",
					"numinlets" : 0,
					"numoutlets" : 1,
					"outlettype" : [ "" ],
					"patching_rect" : [ 52.0, 30.0, 46.0, 22.0 ],
					"text" : "in 1 Xn"
				}

			}
, 			{
				"box" : 				{
					"color" : [ 0.949019607843137, 0.019607843137255, 0.392156862745098, 1.0 ],
					"id" : "obj-4",
					"maxclass" : "newobj",
					"numinlets" : 1,
					"numoutlets" : 0,
					"patching_rect" : [ 52.0, 603.0, 123.0, 22.0 ],
					"text" : "out 1 @comment Left"
				}

			}
 ],
		"lines" : [ 			{
				"patchline" : 				{
					"destination" : [ "obj-5", 0 ],
					"source" : [ "obj-1", 0 ]
				}

			}
, 			{
				"patchline" : 				{
					"destination" : [ "obj-5", 3 ],
					"source" : [ "obj-12", 0 ]
				}

			}
, 			{
				"patchline" : 				{
					"destination" : [ "obj-14", 0 ],
					"source" : [ "obj-13", 0 ]
				}

			}
, 			{
				"patchline" : 				{
					"destination" : [ "obj-4", 0 ],
					"source" : [ "obj-3", 0 ]
				}

			}
, 			{
				"patchline" : 				{
					"destination" : [ "obj-13", 0 ],
					"source" : [ "obj-5", 1 ]
				}

			}
, 			{
				"patchline" : 				{
					"destination" : [ "obj-3", 0 ],
					"source" : [ "obj-5", 0 ]
				}

			}
, 			{
				"patchline" : 				{
					"destination" : [ "obj-5", 1 ],
					"source" : [ "obj-8", 0 ]
				}

			}
, 			{
				"patchline" : 				{
					"destination" : [ "obj-5", 2 ],
					"source" : [ "obj-9", 0 ]
				}

			}
 ]
	}

}
