{
	"patcher" : 	{
		"fileversion" : 1,
		"appversion" : 		{
			"major" : 8,
			"minor" : 2,
			"revision" : 0,
			"architecture" : "x64",
			"modernui" : 1
		}
,
		"classnamespace" : "dsp.gen",
		"rect" : [ 41.0, 84.0, 932.0, 656.0 ],
		"bglocked" : 0,
		"openinpresentation" : 0,
		"default_fontsize" : 12.0,
		"default_fontface" : 0,
		"default_fontname" : "Arial",
		"gridonopen" : 1,
		"gridsize" : [ 15.0, 15.0 ],
		"gridsnaponopen" : 1,
		"objectsnaponopen" : 1,
		"statusbarvisible" : 2,
		"toolbarvisible" : 1,
		"lefttoolbarpinned" : 0,
		"toptoolbarpinned" : 0,
		"righttoolbarpinned" : 0,
		"bottomtoolbarpinned" : 0,
		"toolbars_unpinned_last_save" : 0,
		"tallnewobj" : 0,
		"boxanimatetime" : 200,
		"enablehscroll" : 1,
		"enablevscroll" : 1,
		"devicewidth" : 0.0,
		"description" : "",
		"digest" : "",
		"tags" : "",
		"style" : "",
		"subpatcher_template" : "",
		"assistshowspatchername" : 0,
		"boxes" : [ 			{
				"box" : 				{
					"color" : [ 0.949019607843137, 0.019607843137255, 0.392156862745098, 1.0 ],
					"fontname" : "Arial",
					"fontsize" : 12.0,
					"id" : "obj-25",
					"maxclass" : "newobj",
					"numinlets" : 1,
					"numoutlets" : 0,
					"patching_rect" : [ 50.0, 610.0, 100.0, 22.0 ],
					"text" : "out 1 @comment"
				}

			}
, 			{
				"box" : 				{
					"color" : [ 0.384313725490196, 0.682352941176471, 0.698039215686274, 1.0 ],
					"id" : "obj-8",
					"maxclass" : "newobj",
					"numinlets" : 0,
					"numoutlets" : 1,
					"outlettype" : [ "" ],
					"patching_rect" : [ 698.0, 14.0, 124.0, 22.0 ],
					"text" : "in 5 @comment allcut"
				}

			}
, 			{
				"box" : 				{
					"color" : [ 0.384313725490196, 0.682352941176471, 0.698039215686274, 1.0 ],
					"id" : "obj-6",
					"maxclass" : "newobj",
					"numinlets" : 0,
					"numoutlets" : 1,
					"outlettype" : [ "" ],
					"patching_rect" : [ 374.0, 14.0, 117.0, 22.0 ],
					"text" : "in 3 @comment T60"
				}

			}
, 			{
				"box" : 				{
					"color" : [ 0.384313725490196, 0.682352941176471, 0.698039215686274, 1.0 ],
					"id" : "obj-7",
					"maxclass" : "newobj",
					"numinlets" : 0,
					"numoutlets" : 1,
					"outlettype" : [ "" ],
					"patching_rect" : [ 536.0, 14.0, 121.0, 22.0 ],
					"text" : "in 4 @comment lpcut"
				}

			}
, 			{
				"box" : 				{
					"code" : "require \"combfilter\";\r\n\r\n\r\ncf01 = Combfilter (in1, 3, in2, in3, in4, in5); //sig, ms, T60, lpcut, lpg, allcut\r\ncf02 = Combfilter (in1, 5, in2, in3, in4, in5);\r\ncf03 = Combfilter (in1, 7, in2, in3, in4, in5);\r\ncf04 = Combfilter (in1, 11, in2, in3, in4, in5);\r\ncf05 = Combfilter (in1, 13, in2, in3, in4, in5);\r\ncf06 = Combfilter (in1, 17, in2, in3, in4, in5);\r\ncf07 = Combfilter (in1, 19, in2, in3, in4, in5);\r\ncf08 = Combfilter (in1, 23, in2, in3, in4, in5);\r\ncf09 = Combfilter (in1, 29, in2, in3, in4, in5);\r\ncf10 = Combfilter (in1, 31, in2, in3, in4, in5);\r\ncf11 = Combfilter (in1, 37, in2, in3, in4, in5);\r\ncf12 = Combfilter (in1, 41, in2, in3, in4, in5);\r\ncf13 = Combfilter (in1, 43, in2, in3, in4, in5);\r\ncf14 = Combfilter (in1, 47, in2, in3, in4, in5);\r\ncf15 = Combfilter (in1, 53, in2, in3, in4, in5);\r\ncf16 = Combfilter (in1, 59, in2, in3, in4, in5);\r\ncf17 = Combfilter (in1, 61, in2, in3, in4, in5);\r\ncf18 = Combfilter (in1, 67, in2, in3, in4, in5);\r\ncf19 = Combfilter (in1, 71, in2, in3, in4, in5);\r\ncf20 = Combfilter (in1, 73, in2, in3, in4, in5);\r\ncf21 = Combfilter (in1, 79, in2, in3, in4, in5);\r\ncf22 = Combfilter (in1, 83, in2, in3, in4, in5);\r\ncf23 = Combfilter (in1, 89, in2, in3, in4, in5);\r\ncf24 = Combfilter (in1, 97, in2, in3, in4, in5);\r\ncf25 = Combfilter (in1, 101, in2, in3, in4, in5);\r\ncf26 = Combfilter (in1, 103, in2, in3, in4, in5);\r\ncf27 = Combfilter (in1, 107, in2, in3, in4, in5);\r\ncf28 = Combfilter (in1, 109, in2, in3, in4, in5);\r\ncf29 = Combfilter (in1, 113, in2, in3, in4, in5);\r\ncf30 = Combfilter (in1, 127, in2, in3, in4, in5);\r\n\r\n\r\ncfn1 = cf01 + cf02 + cf03 + cf04 + cf05 + cf06 + cf07 + cf08 + cf09 + cf10;\r\ncfn2 = cf11 + cf12 + cf13 + cf14 + cf15 + cf16 + cf17 + cf18 + cf19 + cf20;\r\ncfn3 = cf21 + cf22 + cf23 + cf24 + cf25 + cf26 + cf27 + cf28 + cf29 + cf30;\r\ncfnx = cfn1 + cfn2 + cfn3;\r\n\r\nout = cfnx;",
					"fontface" : 0,
					"fontname" : "<Monospaced>",
					"fontsize" : 12.0,
					"id" : "obj-5",
					"maxclass" : "codebox",
					"numinlets" : 5,
					"numoutlets" : 1,
					"outlettype" : [ "" ],
					"patching_rect" : [ 50.0, 49.0, 667.0, 542.0 ]
				}

			}
, 			{
				"box" : 				{
					"color" : [ 0.384313725490196, 0.682352941176471, 0.698039215686274, 1.0 ],
					"id" : "obj-1",
					"maxclass" : "newobj",
					"numinlets" : 0,
					"numoutlets" : 1,
					"outlettype" : [ "" ],
					"patching_rect" : [ 50.0, 14.0, 111.0, 22.0 ],
					"text" : "in 1 @comment Xn"
				}

			}
, 			{
				"box" : 				{
					"color" : [ 0.384313725490196, 0.682352941176471, 0.698039215686274, 1.0 ],
					"id" : "obj-2",
					"maxclass" : "newobj",
					"numinlets" : 0,
					"numoutlets" : 1,
					"outlettype" : [ "" ],
					"patching_rect" : [ 212.0, 14.0, 112.0, 22.0 ],
					"text" : "in 2 @comment ms"
				}

			}
 ],
		"lines" : [ 			{
				"patchline" : 				{
					"destination" : [ "obj-5", 0 ],
					"source" : [ "obj-1", 0 ]
				}

			}
, 			{
				"patchline" : 				{
					"destination" : [ "obj-5", 1 ],
					"source" : [ "obj-2", 0 ]
				}

			}
, 			{
				"patchline" : 				{
					"destination" : [ "obj-25", 0 ],
					"source" : [ "obj-5", 0 ]
				}

			}
, 			{
				"patchline" : 				{
					"destination" : [ "obj-5", 2 ],
					"source" : [ "obj-6", 0 ]
				}

			}
, 			{
				"patchline" : 				{
					"destination" : [ "obj-5", 3 ],
					"source" : [ "obj-7", 0 ]
				}

			}
, 			{
				"patchline" : 				{
					"destination" : [ "obj-5", 4 ],
					"source" : [ "obj-8", 0 ]
				}

			}
 ]
	}

}
