{
	"patcher" : 	{
		"fileversion" : 1,
		"appversion" : 		{
			"major" : 8,
			"minor" : 2,
			"revision" : 0,
			"architecture" : "x64",
			"modernui" : 1
		}
,
		"classnamespace" : "dsp.gen",
		"rect" : [ 302.0, 193.0, 706.0, 503.0 ],
		"bglocked" : 0,
		"openinpresentation" : 0,
		"default_fontsize" : 12.0,
		"default_fontface" : 0,
		"default_fontname" : "Arial",
		"gridonopen" : 1,
		"gridsize" : [ 15.0, 15.0 ],
		"gridsnaponopen" : 1,
		"objectsnaponopen" : 1,
		"statusbarvisible" : 2,
		"toolbarvisible" : 1,
		"lefttoolbarpinned" : 0,
		"toptoolbarpinned" : 0,
		"righttoolbarpinned" : 0,
		"bottomtoolbarpinned" : 0,
		"toolbars_unpinned_last_save" : 0,
		"tallnewobj" : 0,
		"boxanimatetime" : 200,
		"enablehscroll" : 1,
		"enablevscroll" : 1,
		"devicewidth" : 0.0,
		"description" : "",
		"digest" : "",
		"tags" : "",
		"style" : "",
		"subpatcher_template" : "",
		"assistshowspatchername" : 0,
		"boxes" : [ 			{
				"box" : 				{
					"id" : "obj-10",
					"maxclass" : "newobj",
					"numinlets" : 1,
					"numoutlets" : 1,
					"outlettype" : [ "" ],
					"patching_rect" : [ 382.0, 413.0, 25.0, 22.0 ],
					"text" : "/ 8."
				}

			}
, 			{
				"box" : 				{
					"id" : "obj-9",
					"maxclass" : "newobj",
					"numinlets" : 1,
					"numoutlets" : 1,
					"outlettype" : [ "" ],
					"patching_rect" : [ 547.0, 413.0, 25.0, 22.0 ],
					"text" : "/ 8."
				}

			}
, 			{
				"box" : 				{
					"id" : "obj-8",
					"maxclass" : "newobj",
					"numinlets" : 1,
					"numoutlets" : 1,
					"outlettype" : [ "" ],
					"patching_rect" : [ 217.0, 413.0, 25.0, 22.0 ],
					"text" : "/ 8."
				}

			}
, 			{
				"box" : 				{
					"id" : "obj-7",
					"maxclass" : "newobj",
					"numinlets" : 1,
					"numoutlets" : 1,
					"outlettype" : [ "" ],
					"patching_rect" : [ 52.0, 413.0, 25.0, 22.0 ],
					"text" : "/ 8."
				}

			}
, 			{
				"box" : 				{
					"color" : [ 0.949019607843137, 0.019607843137255, 0.392156862745098, 1.0 ],
					"id" : "obj-6",
					"maxclass" : "newobj",
					"numinlets" : 1,
					"numoutlets" : 0,
					"patching_rect" : [ 547.0, 444.0, 112.0, 22.0 ],
					"text" : "out 4 @comment D"
				}

			}
, 			{
				"box" : 				{
					"color" : [ 0.949019607843137, 0.019607843137255, 0.392156862745098, 1.0 ],
					"id" : "obj-3",
					"maxclass" : "newobj",
					"numinlets" : 1,
					"numoutlets" : 0,
					"patching_rect" : [ 382.0, 444.0, 112.0, 22.0 ],
					"text" : "out 3 @comment C"
				}

			}
, 			{
				"box" : 				{
					"color" : [ 0.949019607843137, 0.019607843137255, 0.392156862745098, 1.0 ],
					"id" : "obj-2",
					"maxclass" : "newobj",
					"numinlets" : 1,
					"numoutlets" : 0,
					"patching_rect" : [ 217.0, 444.0, 111.0, 22.0 ],
					"text" : "out 2 @comment B"
				}

			}
, 			{
				"box" : 				{
					"code" : "require \"GKV_filter_library\";\r\n\r\n\r\n//allpass_gain (Xn, ms, gain)\r\nallpass1 = allpass_g (in1, 347, 0.7);\r\nallpass2 = allpass_g (allpass1, 313, 0.7);\r\nallpass3 = allpass_g (allpass2, 37, 0.7);\r\n\r\n//fbcomb_lp_g (Xn, ms, gain, freqcut)\r\nx1 = fbcomb_lp_samp (allpass3, 1687, 0.773, 8000.);\r\nx2 = fbcomb_lp_samp (allpass3, 1601, 0.802, 8000.);\r\nx3 = fbcomb_lp_samp (allpass3, 2053, 0.753, 8000.);\r\nx4 = fbcomb_lp_samp (allpass3, 2251, 0.733, 8000.);\r\n\r\n//MM\r\ns1 = x1 + x3;\r\ns2 = x2 + x4;\r\n\r\nout1 = s1 + s2;\r\nout2 = -out1;\r\nout4 = s1 - s2;\r\nout3 = -out4;\r\n",
					"fontface" : 0,
					"fontname" : "<Monospaced>",
					"fontsize" : 12.0,
					"id" : "obj-5",
					"maxclass" : "codebox",
					"numinlets" : 1,
					"numoutlets" : 4,
					"outlettype" : [ "", "", "", "" ],
					"patching_rect" : [ 52.0, 80.0, 514.0, 324.0 ]
				}

			}
, 			{
				"box" : 				{
					"color" : [ 0.384313725490196, 0.682352941176471, 0.698039215686274, 1.0 ],
					"id" : "obj-1",
					"maxclass" : "newobj",
					"numinlets" : 0,
					"numoutlets" : 1,
					"outlettype" : [ "" ],
					"patching_rect" : [ 52.0, 30.0, 111.0, 22.0 ],
					"text" : "in 1 @comment Xn"
				}

			}
, 			{
				"box" : 				{
					"color" : [ 0.949019607843137, 0.019607843137255, 0.392156862745098, 1.0 ],
					"id" : "obj-4",
					"maxclass" : "newobj",
					"numinlets" : 1,
					"numoutlets" : 0,
					"patching_rect" : [ 52.0, 444.0, 111.0, 22.0 ],
					"text" : "out 1 @comment A"
				}

			}
 ],
		"lines" : [ 			{
				"patchline" : 				{
					"destination" : [ "obj-5", 0 ],
					"source" : [ "obj-1", 0 ]
				}

			}
, 			{
				"patchline" : 				{
					"destination" : [ "obj-3", 0 ],
					"source" : [ "obj-10", 0 ]
				}

			}
, 			{
				"patchline" : 				{
					"destination" : [ "obj-10", 0 ],
					"source" : [ "obj-5", 2 ]
				}

			}
, 			{
				"patchline" : 				{
					"destination" : [ "obj-7", 0 ],
					"source" : [ "obj-5", 0 ]
				}

			}
, 			{
				"patchline" : 				{
					"destination" : [ "obj-8", 0 ],
					"source" : [ "obj-5", 1 ]
				}

			}
, 			{
				"patchline" : 				{
					"destination" : [ "obj-9", 0 ],
					"source" : [ "obj-5", 3 ]
				}

			}
, 			{
				"patchline" : 				{
					"destination" : [ "obj-4", 0 ],
					"source" : [ "obj-7", 0 ]
				}

			}
, 			{
				"patchline" : 				{
					"destination" : [ "obj-2", 0 ],
					"source" : [ "obj-8", 0 ]
				}

			}
, 			{
				"patchline" : 				{
					"destination" : [ "obj-6", 0 ],
					"source" : [ "obj-9", 0 ]
				}

			}
 ]
	}

}
