{
	"patcher" : 	{
		"fileversion" : 1,
		"appversion" : 		{
			"major" : 8,
			"minor" : 2,
			"revision" : 0,
			"architecture" : "x64",
			"modernui" : 1
		}
,
		"classnamespace" : "dsp.gen",
		"rect" : [ 143.0, 160.0, 1188.0, 503.0 ],
		"bglocked" : 0,
		"openinpresentation" : 0,
		"default_fontsize" : 12.0,
		"default_fontface" : 0,
		"default_fontname" : "Arial",
		"gridonopen" : 1,
		"gridsize" : [ 15.0, 15.0 ],
		"gridsnaponopen" : 1,
		"objectsnaponopen" : 1,
		"statusbarvisible" : 2,
		"toolbarvisible" : 1,
		"lefttoolbarpinned" : 0,
		"toptoolbarpinned" : 0,
		"righttoolbarpinned" : 0,
		"bottomtoolbarpinned" : 0,
		"toolbars_unpinned_last_save" : 0,
		"tallnewobj" : 0,
		"boxanimatetime" : 200,
		"enablehscroll" : 1,
		"enablevscroll" : 1,
		"devicewidth" : 0.0,
		"description" : "",
		"digest" : "",
		"tags" : "",
		"style" : "",
		"subpatcher_template" : "",
		"assistshowspatchername" : 0,
		"boxes" : [ 			{
				"box" : 				{
					"code" : "require \"GKV_filter_library\";\r\n\r\n\r\n//fbcomb_lp_samp (Xn, samp, gain, freqcut)\r\nlbcf1 = fbcomb_lp_samp (in1, (1557 + 23), 0.84, 8000.);\r\nlbcf2 = fbcomb_lp_samp (in1, (1617 + 23), 0.84, 8000.);\r\nlbcf3 = fbcomb_lp_samp (in1, (1491 + 23), 0.84, 8000.);\r\nlbcf4 = fbcomb_lp_samp (in1, (1422 + 23), 0.84, 8000.);\r\nlbcf5 = fbcomb_lp_samp (in1, (1277 + 23), 0.84, 8000.);\r\nlbcf6 = fbcomb_lp_samp (in1, (1356 + 23), 0.84, 8000.);\r\nlbcf7 = fbcomb_lp_samp (in1, (1188 + 23), 0.84, 8000.);\r\nlbcf8 = fbcomb_lp_samp (in1, (1116 + 23), 0.84, 8000.);\r\n\r\nlbcfTOT1 = lbcf1 + lbcf2 + lbcf3 + lbcf4;\r\nlbcfTOT2 = lbcf5 + lbcf6 + lbcf7 + lbcf8;\r\n\r\nlbcfTOT = lbcfTOT1 + lbcfTOT2;\r\n\r\n//allpass_samp (Xn, samp, gain)\r\nap1 = allpass_samp (lbcfTOT, 225, 0.5);\r\nap2 = allpass_samp (lbcfTOT, 556, 0.5);\r\nap3 = allpass_samp (lbcfTOT, 441, 0.5);\r\nap4 = allpass_samp (lbcfTOT, 341, 0.5);\r\n\r\nout1 = ap4;\r\n\r\n\r\n\r\n",
					"fontface" : 0,
					"fontname" : "<Monospaced>",
					"fontsize" : 12.0,
					"id" : "obj-7",
					"maxclass" : "codebox",
					"numinlets" : 1,
					"numoutlets" : 1,
					"outlettype" : [ "" ],
					"patching_rect" : [ 581.0, 68.0, 521.0, 345.0 ]
				}

			}
, 			{
				"box" : 				{
					"id" : "obj-6",
					"maxclass" : "newobj",
					"numinlets" : 1,
					"numoutlets" : 1,
					"outlettype" : [ "" ],
					"patching_rect" : [ 581.0, 426.0, 25.0, 22.0 ],
					"text" : "/ 8."
				}

			}
, 			{
				"box" : 				{
					"id" : "obj-3",
					"maxclass" : "newobj",
					"numinlets" : 1,
					"numoutlets" : 1,
					"outlettype" : [ "" ],
					"patching_rect" : [ 52.0, 426.0, 25.0, 22.0 ],
					"text" : "/ 8."
				}

			}
, 			{
				"box" : 				{
					"color" : [ 0.949019607843137, 0.019607843137255, 0.392156862745098, 1.0 ],
					"id" : "obj-2",
					"maxclass" : "newobj",
					"numinlets" : 1,
					"numoutlets" : 0,
					"patching_rect" : [ 581.0, 464.0, 131.0, 22.0 ],
					"text" : "out 2 @comment Right"
				}

			}
, 			{
				"box" : 				{
					"code" : "require \"GKV_filter_library\";\r\n\r\n\r\n//fbcomb_lp_samp (Xn, samp, gain, freqcut)\r\nlbcf1 = fbcomb_lp_samp (in1, 1557, 0.84, 8000.);\r\nlbcf2 = fbcomb_lp_samp (in1, 1617, 0.84, 8000.);\r\nlbcf3 = fbcomb_lp_samp (in1, 1491, 0.84, 8000.);\r\nlbcf4 = fbcomb_lp_samp (in1, 1422, 0.84, 8000.);\r\nlbcf5 = fbcomb_lp_samp (in1, 1277, 0.84, 8000.);\r\nlbcf6 = fbcomb_lp_samp (in1, 1356, 0.84, 8000.);\r\nlbcf7 = fbcomb_lp_samp (in1, 1188, 0.84, 8000.);\r\nlbcf8 = fbcomb_lp_samp (in1, 1116, 0.84, 8000.);\r\n\r\nlbcfTOT1 = lbcf1 + lbcf2 + lbcf3 + lbcf4;\r\nlbcfTOT2 = lbcf5 + lbcf6 + lbcf7 + lbcf8;\r\n\r\nlbcfTOT = lbcfTOT1 + lbcfTOT2;\r\n\r\n//allpass_samp (Xn, samp, gain)\r\nap1 = allpass_samp (lbcfTOT, 225, 0.5);\r\nap2 = allpass_samp (lbcfTOT, 556, 0.5);\r\nap3 = allpass_samp (lbcfTOT, 441, 0.5);\r\nap4 = allpass_samp (lbcfTOT, 341, 0.5);\r\n\r\nout1 = ap4;\r\n\r\n\r\n\r\n",
					"fontface" : 0,
					"fontname" : "<Monospaced>",
					"fontsize" : 12.0,
					"id" : "obj-5",
					"maxclass" : "codebox",
					"numinlets" : 1,
					"numoutlets" : 1,
					"outlettype" : [ "" ],
					"patching_rect" : [ 52.0, 68.0, 515.0, 345.0 ]
				}

			}
, 			{
				"box" : 				{
					"color" : [ 0.384313725490196, 0.682352941176471, 0.698039215686274, 1.0 ],
					"id" : "obj-1",
					"maxclass" : "newobj",
					"numinlets" : 0,
					"numoutlets" : 1,
					"outlettype" : [ "" ],
					"patching_rect" : [ 52.0, 30.0, 111.0, 22.0 ],
					"text" : "in 1 @comment Xn"
				}

			}
, 			{
				"box" : 				{
					"color" : [ 0.949019607843137, 0.019607843137255, 0.392156862745098, 1.0 ],
					"id" : "obj-4",
					"maxclass" : "newobj",
					"numinlets" : 1,
					"numoutlets" : 0,
					"patching_rect" : [ 52.0, 464.0, 123.0, 22.0 ],
					"text" : "out 1 @comment Left"
				}

			}
 ],
		"lines" : [ 			{
				"patchline" : 				{
					"destination" : [ "obj-5", 0 ],
					"order" : 1,
					"source" : [ "obj-1", 0 ]
				}

			}
, 			{
				"patchline" : 				{
					"destination" : [ "obj-7", 0 ],
					"order" : 0,
					"source" : [ "obj-1", 0 ]
				}

			}
, 			{
				"patchline" : 				{
					"destination" : [ "obj-4", 0 ],
					"source" : [ "obj-3", 0 ]
				}

			}
, 			{
				"patchline" : 				{
					"destination" : [ "obj-3", 0 ],
					"source" : [ "obj-5", 0 ]
				}

			}
, 			{
				"patchline" : 				{
					"destination" : [ "obj-2", 0 ],
					"source" : [ "obj-6", 0 ]
				}

			}
, 			{
				"patchline" : 				{
					"destination" : [ "obj-6", 0 ],
					"source" : [ "obj-7", 0 ]
				}

			}
 ]
	}

}
